<svg width="512" height="512" viewBox="0 0 512 512" fill="none" xmlns="http://www.w3.org/2000/svg">
  <path
    d="M36.5 175.4V448.7C36.5 452.4 39.5 455.4 43.2 455.4H217.7L228.3 476.6H283.8L294.4 455.4H468.9C472.6 455.4 475.6 452.4 475.6 448.7V175.4C475.6 171.7 472.6 168.7 468.9 168.7H43.2C39.5 168.7 36.5 171.7 36.5 175.4Z"
    fill="#A729F5" />
  <path d="M245.7 448.3L235.1 427.1H64.8V147.5H447.2V427.1H276.9L266.3 448.3H245.7Z" fill="#F4F6FA" />
  <path
    d="M260.4 303.1L285.2 260.3C334.1 247.4 370.2 202.8 370.2 149.8C370.2 86.7 319 35.5 255.9 35.5C192.8 35.5 141.7 86.6 141.7 149.7C141.7 202.7 177.8 247.3 226.7 260.2L251.4 303C253.4 306.7 258.5 306.7 260.4 303.1Z"
    fill="#26D782" />
  <path
    d="M285.5 90.4C277.9 85 267.6 82.3 255 82.3C238.8 82.3 226.8 86.2 219.2 93.9C217 96.2 215.1 98.6 213.3 101.3C210.6 105.6 210.3 111.2 212.5 115.9C214.7 120.6 218.9 123.7 223.7 124.4C224.2 124.5 224.8 124.5 225.4 124.5C230.7 124.5 235.7 121.2 238.3 115.9C239.2 114.2 240.1 112.6 241.3 111.5C244.8 107.8 249.2 106 254.4 106C259.3 106 263.1 107.3 265.7 109.9C268.3 112.5 269.6 116.1 269.6 120.4C269.6 125 266.8 129.6 261 134.5C251.9 142.4 245.9 148.1 243.4 151.1C241 154 239.2 157.3 238 160.8C238 160.9 237.9 161 237.9 161.2C237 164.7 237.8 168.3 240 171.1C242.1 173.8 245.2 175.3 248.5 175.3H256.2C260.8 175.3 264.8 172.4 266.2 168C266.5 166.9 267.1 165.8 267.5 164.9C269.3 161.3 273.5 157 280 151.5C288.6 144.4 294.2 138.5 296.9 133.8C299.5 129.2 300.8 124.5 300.8 119.6C300.9 107.2 295.8 97.8 285.5 90.4ZM252.9 184.5H248.5C241.2 184.5 235.3 190.8 235.3 198.6C235.3 206.4 241.3 212.7 248.5 212.7H252.9C260.2 212.7 266.1 206.4 266.1 198.6C266.1 190.8 260.1 184.5 252.9 184.5Z"
    fill="#F2F2F2" />
</svg>